<?xml version="1.0" encoding="UTF-8"?>
<svg id="Layer_1" data-name="Layer 1" xmlns="http://www.w3.org/2000/svg" viewBox="0 0 1046.63 271.19">
  <defs>
    <style>
      .cls-1 {
        fill: #ff1eff;
        stroke-width: 0px;
      }
    </style>
  </defs>
  <g>
    <ellipse class="cls-1" cx="199.65" cy="32.83" rx="15.33" ry="9.04"/>
    <rect class="cls-1" x="184.32" y="32.44" width="5.5" height="54.25" transform="translate(374.14 119.14) rotate(180)"/>
    <ellipse class="cls-1" cx="155.62" cy="41.48" rx="15.33" ry="9.04"/>
    <rect class="cls-1" x="140.29" y="41.88" width="5.5" height="45.61" transform="translate(286.08 129.36) rotate(180)"/>
    <rect class="cls-1" x="164.66" y="62.32" width="5.5" height="44.82" transform="translate(82.69 252.14) rotate(-90)"/>
  </g>
  <g>
    <ellipse class="cls-1" cx="89.57" cy="92.59" rx="15.33" ry="9.04"/>
    <rect class="cls-1" x="99.4" y="40.3" width="5.5" height="52.68"/>
    <path class="cls-1" d="M126.88,66.16c-.39,6.93-5.99,13.36-6.48,13.13-.28-.13,1.15-2.32,1.49-5.78.49-4.87-1.28-9.73-4.18-13.6-1.45-1.93-3.17-3.66-5.14-5.06-2.92-2.07-6.37-3.39-9.03-5.82-1.55-1.39-3.75-3.37-4.14-6.36v-1.25c0-.7-.09-1.38.24-2.02.2-.4.44-.66.87-.8.37-.11.76-.13,1.14-.11,1.11.05,2.21.38,3.25.76,8.15,2.96,22.68,14.1,21.98,26.92Z"/>
  </g>
  <g>
    <ellipse class="cls-1" cx="235.82" cy="69.79" rx="15.33" ry="9.04"/>
    <rect class="cls-1" x="245.65" y="17.5" width="5.5" height="52.68"/>
    <path class="cls-1" d="M273.13,43.35c-.39,6.93-5.99,13.36-6.48,13.13-.28-.13,1.15-2.32,1.49-5.78.49-4.87-1.28-9.73-4.18-13.6-1.45-1.93-3.17-3.66-5.14-5.06-2.92-2.07-6.37-3.39-9.03-5.82-1.55-1.39-3.75-3.37-4.14-6.36v-1.25c0-.7-.09-1.38.24-2.02.2-.4.44-.66.87-.8.37-.11.76-.13,1.14-.11,1.11.05,2.21.38,3.25.76,8.15,2.96,22.68,14.1,21.98,26.92Z"/>
    <path class="cls-1" d="M273.13,59.08c-.39,6.93-5.99,13.36-6.48,13.13-.28-.13,1.15-2.32,1.49-5.78.49-4.87-1.28-9.73-4.18-13.6-1.45-1.93-3.17-3.66-5.14-5.06-2.92-2.07-6.37-3.39-9.03-5.82-1.55-1.39-3.75-3.37-4.14-6.36v-1.25c0-.7-.09-1.38.24-2.02.2-.4.44-.66.87-.8.37-.11.76-.13,1.14-.11,1.11.05,2.21.38,3.25.76,8.15,2.96,22.68,14.1,21.98,26.92Z"/>
  </g>
  <g>
    <path class="cls-1" d="M62.89,36.49c.19,1.03,0,3.4-1.59,6.17-.29.51-.6.98-.93,1.42v-5.83c.45-.45.91-.84,1.37-1.16.5-.34.88-.51,1.15-.61M63.33,31.39c-1.38,0-2.91.56-4.4,1.57-1.25.84-2.47,2.01-3.56,3.44v15.71h.16c.32,0,.65.01.97.01.37,0,.73-.02,1.1-.08,1.29-.24,2.44-.91,3.49-1.67,1.88-1.34,3.39-3.23,4.54-5.21,3.14-5.44,3.09-11.36-.12-13.21-.66-.38-1.39-.56-2.18-.56h0Z"/>
    <path class="cls-1" d="M58.93,14.45v36.09c0,.34,0,.67,0,1.01,0,.02,0,.04,0,.06-.01.02-.04.03-.06.04-.38.15-.76.3-1.17.38s-.84.07-1.26.07c-.01,0-.03,0-.04,0-.34,0-.68,0-1.02,0h-.01V14.45s3.56,0,3.56,0Z"/>
  </g>
  <path class="cls-1" d="M42.37,63.31c-1.67-4.49-6.57-8.53-11.39-9-.74-.08-4.8.27-4.93.06q-1.43-5.65-2.85-11.31c6.48-6.91,11.86-19.34,9.17-28.71-1.03-3.55-6.1-11.33-8.76-14.35-9.15,12.21-11.71,18.1-7.44,33.42C10.23,40.26.83,51.04.09,60.32c-1.38,16.97,13.36,28.16,29.47,23.88l.18.18c2.54,11.22,6.62,21.91-9.41,22.74,5.39-3.19,5.16-12.16-.29-15.18-7.5-4.14-15.74,4.84-10.43,13.53,4.8,7.82,17.54,5.95,22.58,1.72,7.36-6.16,2.72-16.14,1.24-23.88,7.79-3.37,11.95-11.86,8.94-19.99ZM20.45,18.99c1.26-2.08,5.18-5.95,6.5-6.01.8-.03,1.34,1.81,1.37,2.44.23,4.07-5.8,11.1-8.52,14.12-1.78-4.24-1.72-6.62.65-10.55ZM24.56,80.98c-11.51.46-21.45-9.43-15.55-21.38,2.55-5.16,7.47-8.74,11.14-13.04q1.15,4.39,2.32,8.76c-10.72,4.3-10.48,19.01.65,20.19-4.18-3.73-3.55-9.09,1.43-11.55q2.05,8.06,4.1,16.14c.12.52-3.36.87-4.1.88ZM32,78.78c-1.08-5.07-2.7-10.11-3.51-15.18,4.19.49,6.91,4.63,7.07,8.64.2,4.72-3.13,7-3.57,6.54Z"/>
</svg>