<?xml version="1.0" encoding="UTF-8"?>
<svg id="Huge_O_board" data-name="Huge O board" xmlns="http://www.w3.org/2000/svg" xmlns:xlink="http://www.w3.org/1999/xlink" viewBox="0 0 3840 5656.5">
  <defs>
    <style>
      .cls-1 {
        fill: url(#New_Pattern);
      }

      .cls-1, .cls-2, .cls-3 {
        stroke-width: 0px;
      }

      .cls-2 {
        fill: none;
      }

      .cls-3 {
        fill: #ff1eff;
      }
    </style>
    <pattern id="New_Pattern" data-name="New Pattern" x="0" y="0" width="308.16" height="240.2" patternTransform="translate(2007 -129)" patternUnits="userSpaceOnUse" viewBox="0 0 308.16 240.2">
      <g>
        <rect class="cls-2" y="0" width="308.16" height="240.2"/>
        <g>
          <g>
            <ellipse class="cls-3" cx="63.07" cy="217.61" rx="15.33" ry="9.04"/>
            <polygon class="cls-3" points="47.74 217.22 53.25 217.22 53.25 271.47 47.74 271.47 47.74 217.22"/>
            <ellipse class="cls-3" cx="19.04" cy="226.26" rx="15.33" ry="9.04"/>
            <polygon class="cls-3" points="3.71 226.65 9.21 226.65 9.21 272.26 3.71 272.26 3.71 226.65"/>
          </g>
          <g>
            <rect class="cls-3" x="109.07" y="202.28" width="5.5" height="52.68"/>
            <path class="cls-3" d="M136.55,228.13c-.39,6.93-5.99,13.36-6.48,13.13-.28-.13,1.15-2.32,1.49-5.78.49-4.87-1.28-9.73-4.18-13.6-1.45-1.93-3.17-3.66-5.14-5.06-2.92-2.07-6.37-3.39-9.03-5.82-1.55-1.39-3.75-3.37-4.14-6.36v-1.25c0-.7-.09-1.38.24-2.02.2-.4.44-.66.87-.8.37-.11.76-.13,1.14-.11,1.11.05,2.21.38,3.25.76,8.15,2.96,22.68,14.1,21.98,26.92Z"/>
            <path class="cls-3" d="M136.55,243.86c-.39,6.93-5.99,13.36-6.48,13.13-.28-.13,1.15-2.32,1.49-5.78.49-4.87-1.28-9.73-4.18-13.6-1.45-1.93-3.17-3.66-5.14-5.06-2.92-2.07-6.37-3.39-9.03-5.82-1.55-1.39-3.75-3.37-4.14-6.36v-1.25c0-.7-.09-1.38.24-2.02.2-.4.44-.66.87-.8.37-.11.76-.13,1.14-.11,1.11.05,2.21.38,3.25.76,8.15,2.96,22.68,14.1,21.98,26.92Z"/>
          </g>
        </g>
        <g>
          <g>
            <rect class="cls-3" x="270.98" y="225.08" width="5.5" height="52.68"/>
            <path class="cls-3" d="M298.46,250.93c-.39,6.93-5.99,13.36-6.48,13.13-.28-.13,1.15-2.32,1.49-5.78.49-4.87-1.28-9.73-4.18-13.6-1.45-1.93-3.17-3.66-5.14-5.06-2.92-2.07-6.37-3.39-9.03-5.82-1.55-1.39-3.75-3.37-4.14-6.36v-1.25c0-.7-.09-1.38.24-2.02.2-.4.44-.66.87-.8.37-.11.76-.13,1.14-.11,1.11.05,2.21.38,3.25.76,8.15,2.96,22.68,14.1,21.98,26.92Z"/>
          </g>
          <g>
            <path class="cls-3" d="M234.47,221.26c-.27.09-.65.27-1.15.61-.46.31-.93.7-1.37,1.16v5.83c.32-.44.63-.91.93-1.42,1.6-2.76,1.79-5.13,1.59-6.17M234.91,216.16c.78,0,1.52.18,2.18.56,3.21,1.85,3.27,7.76.12,13.21-1.15,1.99-2.66,3.87-4.54,5.21-1.05.75-2.2,1.43-3.49,1.67-.37.07-.73.08-1.1.08-.32,0-.64-.01-.97-.01h-.16v-15.71c1.09-1.42,2.32-2.6,3.56-3.44,1.49-1.01,3.02-1.57,4.4-1.57h0Z"/>
            <path class="cls-3" d="M230.51,199.23v36.09c0,.34,0,.67,0,1.01,0,.02,0,.04,0,.06-.01.02-.04.03-.06.04-.38.15-.76.3-1.17.38s-.84.07-1.26.07c-.01,0-.03,0-.04,0-.34,0-.68,0-1.02,0h-.01v-37.65h3.56Z"/>
          </g>
          <path class="cls-3" d="M205.01,268.08c1.47,7.74,6.12,17.72-1.24,23.88-5.04,4.24-17.78,6.1-22.58-1.72-5.31-8.68,2.93-17.67,10.43-13.53,5.45,3.02,5.68,11.99.29,15.18,16.03-.83,11.95-11.52,9.41-22.74l-.18-.18c-16.11,4.28-30.85-6.91-29.47-23.88.74-9.28,10.14-20.06,16.08-26.9-4.27-15.32-1.72-21.21,7.44-33.42,2.66,3.02,7.73,10.79,8.76,14.35,2.69,9.37-2.69,21.8-9.17,28.71q1.43,5.66,2.85,11.31c.14.21,4.19-.14,4.93-.06,4.81.47,9.72,4.51,11.39,9,3.01,8.14-1.15,16.62-8.94,19.99ZM191.38,214.32c2.72-3.02,8.74-10.05,8.52-14.12-.03-.64-.56-2.47-1.37-2.44-1.32.06-5.24,3.93-6.5,6.01-2.37,3.93-2.43,6.32-.65,10.55ZM200.24,264.88q-2.05-8.08-4.1-16.14c-4.98,2.46-5.6,7.82-1.43,11.55-11.13-1.18-11.37-15.9-.65-20.19q-1.17-4.37-2.32-8.76c-3.67,4.3-8.59,7.88-11.14,13.04-5.91,11.95,4.04,21.83,15.55,21.38.74-.02,4.22-.36,4.1-.88ZM207.15,257.01c-.17-4.01-2.88-8.15-7.07-8.64.8,5.07,2.43,10.11,3.51,15.18.44.46,3.77-1.82,3.57-6.54Z"/>
        </g>
        <g>
          <g>
            <ellipse class="cls-3" cx="217.15" cy="97.51" rx="15.33" ry="9.04"/>
            <polygon class="cls-3" points="201.82 97.12 207.32 97.12 207.32 151.37 201.82 151.37 201.82 97.12"/>
            <ellipse class="cls-3" cx="173.12" cy="106.16" rx="15.33" ry="9.04"/>
            <polygon class="cls-3" points="157.79 106.55 163.29 106.55 163.29 152.16 157.79 152.16 157.79 106.55"/>
            <polygon class="cls-3" points="207.32 146.65 207.32 152.16 162.51 152.16 162.51 146.65 207.32 146.65"/>
          </g>
          <g>
            <ellipse class="cls-3" cx="107.07" cy="157.27" rx="15.33" ry="9.04"/>
            <rect class="cls-3" x="116.9" y="104.98" width="5.5" height="52.68"/>
            <path class="cls-3" d="M144.38,130.83c-.39,6.93-5.99,13.36-6.48,13.13-.28-.13,1.15-2.32,1.49-5.78.49-4.87-1.28-9.73-4.18-13.6-1.45-1.93-3.17-3.66-5.14-5.06-2.92-2.07-6.37-3.39-9.03-5.82-1.55-1.39-3.75-3.37-4.14-6.36v-1.25c0-.7-.09-1.38.24-2.02.2-.4.44-.66.87-.8.37-.11.76-.13,1.14-.11,1.11.05,2.21.38,3.25.76,8.15,2.96,22.68,14.1,21.98,26.92Z"/>
          </g>
          <g>
            <path class="cls-3" d="M253.32,143.51c8.47,0,15.33-4.05,15.33-9.04s-6.86-9.04-15.33-9.04c-8.47,0-15.33,4.05-15.33,9.04s6.86,9.04,15.33,9.04Z"/>
            <rect class="cls-3" x="263.15" y="82.18" width="5.5" height="52.68"/>
            <path class="cls-3" d="M290.63,108.03c-.39,6.93-5.99,13.36-6.48,13.13-.28-.13,1.15-2.32,1.49-5.78.49-4.87-1.28-9.73-4.18-13.6-1.45-1.93-3.17-3.66-5.14-5.06-2.92-2.07-6.37-3.39-9.03-5.82-1.55-1.39-3.75-3.37-4.14-6.36v-1.25c0-.7-.09-1.38.24-2.02.2-.4.44-.66.87-.8.37-.11.76-.13,1.14-.11,1.11.05,2.21.38,3.25.76,8.15,2.96,22.68,14.1,21.98,26.92Z"/>
            <path class="cls-3" d="M290.63,123.76c-.39,6.93-5.99,13.36-6.48,13.13-.28-.13,1.15-2.32,1.49-5.78.49-4.87-1.28-9.73-4.18-13.6-1.45-1.93-3.17-3.66-5.14-5.06-2.92-2.07-6.37-3.39-9.03-5.82-1.55-1.39-3.75-3.37-4.14-6.36v-1.25c0-.7-.09-1.38.24-2.02.2-.4.44-.66.87-.8.37-.11.76-.13,1.14-.11,1.11.05,2.21.38,3.25.76,8.15,2.96,22.68,14.1,21.98,26.92Z"/>
          </g>
          <g>
            <path class="cls-3" d="M80.39,101.16c-.27.09-.65.27-1.15.61-.46.31-.93.7-1.37,1.16v5.83c.32-.44.63-.91.93-1.42,1.6-2.76,1.79-5.13,1.59-6.17M80.83,96.06c.78,0,1.52.18,2.18.56,3.21,1.85,3.27,7.76.12,13.21-1.15,1.99-2.66,3.87-4.54,5.21-1.05.75-2.2,1.43-3.49,1.67-.37.07-.73.08-1.1.08-.32,0-.64-.01-.97-.01h-.16v-15.71c1.09-1.42,2.32-2.6,3.56-3.44,1.49-1.01,3.02-1.57,4.4-1.57h0Z"/>
            <path class="cls-3" d="M76.43,79.13v36.09c0,.34,0,.67,0,1.01,0,.02,0,.04,0,.06-.01.02-.04.03-.06.04-.38.15-.76.3-1.17.38s-.84.07-1.26.07c-.01,0-.03,0-.04,0-.34,0-.68,0-1.02,0h-.01v-37.65h3.56Z"/>
          </g>
          <path class="cls-3" d="M50.93,147.98c1.47,7.74,6.12,17.72-1.24,23.88-5.04,4.24-17.78,6.1-22.58-1.72-5.31-8.68,2.93-17.67,10.43-13.53,5.45,3.02,5.68,11.99.29,15.18,16.03-.83,11.95-11.52,9.41-22.74l-.18-.18c-16.11,4.28-30.85-6.91-29.47-23.88.74-9.28,10.14-20.06,16.08-26.9-4.27-15.32-1.72-21.21,7.44-33.42,2.66,3.02,7.73,10.79,8.76,14.35,2.69,9.37-2.69,21.8-9.17,28.71q1.43,5.66,2.85,11.31c.14.21,4.19-.14,4.93-.06,4.81.47,9.72,4.51,11.39,9,3.01,8.14-1.15,16.62-8.94,19.99ZM37.3,94.22c2.72-3.02,8.74-10.05,8.52-14.12-.03-.64-.56-2.47-1.37-2.44-1.32.06-5.24,3.93-6.5,6.01-2.37,3.93-2.43,6.32-.65,10.55ZM46.16,144.78q-2.05-8.08-4.1-16.14c-4.98,2.46-5.6,7.82-1.43,11.55-11.13-1.18-11.37-15.9-.65-20.19q-1.17-4.37-2.32-8.76c-3.67,4.3-8.59,7.88-11.14,13.04-5.91,11.95,4.04,21.83,15.55,21.38.74-.02,4.22-.36,4.1-.88ZM53.07,136.91c-.17-4.01-2.88-8.15-7.07-8.64.8,5.07,2.43,10.11,3.51,15.18.44.46,3.77-1.82,3.57-6.54Z"/>
        </g>
        <g>
          <g>
            <polygon class="cls-3" points="47.74 -22.98 53.25 -22.98 53.25 31.27 47.74 31.27 47.74 -22.98"/>
            <polygon class="cls-3" points="3.71 -13.55 9.21 -13.55 9.21 32.06 3.71 32.06 3.71 -13.55"/>
            <polygon class="cls-3" points="53.25 26.55 53.25 32.06 8.43 32.06 8.43 26.55 53.25 26.55"/>
          </g>
          <g>
            <path class="cls-3" d="M99.24,23.41c8.47,0,15.33-4.05,15.33-9.04s-6.86-9.04-15.33-9.04c-8.47,0-15.33,4.05-15.33,9.04s6.86,9.04,15.33,9.04Z"/>
            <rect class="cls-3" x="109.07" y="-37.92" width="5.5" height="52.68"/>
            <path class="cls-3" d="M136.55-12.07c-.39,6.93-5.99,13.36-6.48,13.13-.28-.13,1.15-2.32,1.49-5.78.49-4.87-1.28-9.73-4.18-13.6-1.45-1.93-3.17-3.66-5.14-5.06-2.92-2.07-6.37-3.39-9.03-5.82-1.55-1.39-3.75-3.37-4.14-6.36v-1.25c0-.7-.09-1.38.24-2.02.2-.4.44-.66.87-.8.37-.11.76-.13,1.14-.11,1.11.05,2.21.38,3.25.76,8.15,2.96,22.68,14.1,21.98,26.92Z"/>
            <path class="cls-3" d="M136.55,3.66c-.39,6.93-5.99,13.36-6.48,13.13-.28-.13,1.15-2.32,1.49-5.78.49-4.87-1.28-9.73-4.18-13.6-1.45-1.93-3.17-3.66-5.14-5.06-2.92-2.07-6.37-3.39-9.03-5.82-1.55-1.39-3.75-3.37-4.14-6.36v-1.25c0-.7-.09-1.38.24-2.02.2-.4.44-.66.87-.8.37-.11.76-.13,1.14-.11,1.11.05,2.21.38,3.25.76,8.15,2.96,22.68,14.1,21.98,26.92Z"/>
          </g>
        </g>
        <g>
          <g>
            <ellipse class="cls-3" cx="261.15" cy="37.17" rx="15.33" ry="9.04"/>
            <rect class="cls-3" x="270.98" y="-15.12" width="5.5" height="52.68"/>
            <path class="cls-3" d="M298.46,10.73c-.39,6.93-5.99,13.36-6.48,13.13-.28-.13,1.15-2.32,1.49-5.78.49-4.87-1.28-9.73-4.18-13.6-1.45-1.93-3.17-3.66-5.14-5.06-2.92-2.07-6.37-3.39-9.03-5.82-1.55-1.39-3.75-3.37-4.14-6.36v-1.25c0-.7-.09-1.38.24-2.02.2-.4.44-.66.87-.8.37-.11.76-.13,1.14-.11,1.11.05,2.21.38,3.25.76,8.15,2.96,22.68,14.1,21.98,26.92Z"/>
          </g>
          <path class="cls-3" d="M205.01,27.88c1.47,7.74,6.12,17.72-1.24,23.88-5.04,4.24-17.78,6.1-22.58-1.72-5.31-8.68,2.93-17.67,10.43-13.53,5.45,3.02,5.68,11.99.29,15.18,16.03-.83,11.95-11.52,9.41-22.74l-.18-.18c-16.11,4.28-30.85-6.91-29.47-23.88.74-9.28,10.14-20.06,16.08-26.9-4.27-15.32-1.72-21.21,7.44-33.42,2.66,3.02,7.73,10.79,8.76,14.35,2.69,9.37-2.69,21.8-9.17,28.71q1.43,5.66,2.85,11.31c.14.21,4.19-.14,4.93-.06,4.81.47,9.72,4.51,11.39,9,3.01,8.14-1.15,16.62-8.94,19.99ZM191.38-25.88c2.72-3.02,8.74-10.05,8.52-14.12-.03-.64-.56-2.47-1.37-2.44-1.32.06-5.24,3.93-6.5,6.01-2.37,3.93-2.43,6.32-.65,10.55ZM200.24,24.68q-2.05-8.08-4.1-16.14c-4.98,2.46-5.6,7.82-1.43,11.55-11.13-1.18-11.37-15.9-.65-20.19q-1.17-4.37-2.32-8.76c-3.67,4.3-8.59,7.88-11.14,13.04-5.91,11.95,4.04,21.83,15.55,21.38.74-.02,4.22-.36,4.1-.88ZM207.15,16.81c-.17-4.01-2.88-8.15-7.07-8.64.8,5.07,2.43,10.11,3.51,15.18.44.46,3.77-1.82,3.57-6.54Z"/>
        </g>
      </g>
    </pattern>
  </defs>
  <rect class="cls-1" y="3496.5" width="3840" height="2160"/>
</svg>